<?xml version="1.0" encoding="UTF-8"?>
<svg width="13px" height="12px" viewBox="0 0 13 12" version="1.1" xmlns="http://www.w3.org/2000/svg" xmlns:xlink="http://www.w3.org/1999/xlink">
    <!-- Generator: sketchtool 41.1 (35376) - http://www.bohemiancoding.com/sketch -->
    <title>44256E0C-6F68-4473-8026-616B40342EB2</title>
    <desc>Created with sketchtool.</desc>
    <defs></defs>
    <g id="UI" stroke="none" stroke-width="1" fill="none" fill-rule="evenodd">
        <g id="article-page" transform="translate(-286.000000, -813.000000)">
            <g id="Group-2" transform="translate(170.000000, 804.000000)">
                <g id="ic-thumb-down" transform="translate(116.000000, 8.000000)">
                    <g id="ic_thumb_down">
                        <g id="Page-1">
                            <g id="Action">
                                <g id="ic_thumb_down">
                                    <polygon id="bounds" points="0 0 13 0 13 13 0 13"></polygon>
                                    <path d="M8.125,1.625 L3.25,1.625 C2.80041667,1.625 2.41583333,1.89583333 2.25333333,2.28583333 L0.6175,6.10458333 C0.56875,6.22916667 0.541666667,6.35916667 0.541666667,6.5 L0.541666667,7.53458333 L0.547083333,7.54 L0.541666667,7.58333333 C0.541666667,8.17916667 1.02916667,8.66666667 1.625,8.66666667 L5.04291667,8.66666667 L4.52833333,11.1420833 L4.51208333,11.3154167 C4.51208333,11.5375 4.60416667,11.7433333 4.75041667,11.8895833 L5.32458333,12.4583333 L8.89416667,8.88875 C9.08916667,8.69375 9.20833333,8.42291667 9.20833333,8.125 L9.20833333,2.70833333 C9.20833333,2.1125 8.72083333,1.625 8.125,1.625 L8.125,1.625 Z M10.2916667,1.625 L10.2916667,8.125 L12.4583333,8.125 L12.4583333,1.625 L10.2916667,1.625 L10.2916667,1.625 Z" id="icon" fill="#C51255"></path>
                                </g>
                            </g>
                        </g>
                    </g>
                </g>
            </g>
        </g>
    </g>
</svg>