<?xml version="1.0" encoding="utf-8"?>
<!-- Generator: Adobe Illustrator 23.0.5, SVG Export Plug-In . SVG Version: 6.00 Build 0)  -->
<svg version="1.1" id="Слой_1" xmlns="http://www.w3.org/2000/svg" xmlns:xlink="http://www.w3.org/1999/xlink" x="0px" y="0px"
	 viewBox="0 0 595.3 107" style="enable-background:new 0 0 595.3 107;" xml:space="preserve">
<style type="text/css">
	.st0{fill:#DA1A32;}
	.st1{fill:#000077;}
</style>
<g>
	<path class="st0" d="M63.8,88.6h27.5l21.4-37.2H85.2L63.8,88.6L63.8,88.6z M36.4,88.6h27.5L42.4,51.4H15L36.4,88.6L36.4,88.6z
		 M42.4,51.4h42.8L63.8,14.3L42.4,51.4L42.4,51.4z"/>
	<polygon class="st1" points="157.5,51.6 201.1,51.6 201.1,35.9 137,35.9 137,88.6 157.5,88.6 157.5,75 188,75 188,61.2 157.5,61.2 
			"/>
	<path class="st1" d="M225.1,68.5l9.7-18.3l9.7,18.3H225.1L225.1,68.5z M223.1,35.9l-30.4,52.7h21.8l4.2-8H251l4.2,8h22.7
		l-30.5-52.7H223.1L223.1,35.9z"/>
	<polygon class="st1" points="328.4,35.9 309.6,71 290.8,35.9 267.3,35.9 297.8,88.6 321.1,88.6 351.6,35.9 	"/>
	<path class="st1" d="M402,75.8h-25.1v-8H402c2.6,0,4.5,1.7,4.5,4C406.5,74.2,404.6,75.8,402,75.8 M400.3,48.7c2.6,0,4.5,1.7,4.5,4
		c0,2.3-1.9,4-4.5,4h-23.4v-8H400.3L400.3,48.7z M417.7,61.9c5.3-2.6,7.9-6.7,7.9-11.4c0-8.7-7.3-14.6-21.7-14.6h-46.9v52.8h47.9
		c15.4,0,22.3-6.1,22.3-14.9C427.2,68.8,424.2,64.3,417.7,61.9"/>
	<polygon class="st1" points="458.5,68.1 489.1,68.1 489.1,56.3 458.5,56.3 458.5,50.1 502,50.1 502,35.9 437.9,35.9 437.9,88.6 
		503.5,88.6 503.5,74.5 458.5,74.5 	"/>
	<polygon class="st1" points="577,35.9 508,35.9 508,50.1 532.2,50.1 532.2,88.6 552.9,88.6 552.9,50.1 577,50.1 	"/>
</g>
</svg>
