<?xml version="1.0" encoding="UTF-8"?>
<svg width="14px" height="13px" viewBox="0 0 14 13" version="1.1" xmlns="http://www.w3.org/2000/svg" xmlns:xlink="http://www.w3.org/1999/xlink">
    <!-- Generator: sketchtool 41.1 (35376) - http://www.bohemiancoding.com/sketch -->
    <title>0C66EFD8-2283-4CD8-B9C4-A7F4AEBE8638</title>
    <desc>Created with sketchtool.</desc>
    <defs></defs>
    <g id="UI" stroke="none" stroke-width="1" fill="none" fill-rule="evenodd">
        <g id="article-page" transform="translate(-192.000000, -811.000000)">
            <g id="Group-2" transform="translate(170.000000, 804.000000)">
                <g id="ic-thumb-up" transform="translate(22.000000, 7.000000)">
                    <g id="ic_thumb_up">
                        <g id="Page-1">
                            <g id="Action">
                                <g id="ic_thumb_up">
                                    <polygon id="bounds" points="0 0 14 0 14 14 0 14"></polygon>
                                    <path d="M0.583333333,12.25 L2.91666667,12.25 L2.91666667,5.25 L0.583333333,5.25 L0.583333333,12.25 L0.583333333,12.25 Z M13.4166667,5.83333333 C13.4166667,5.19166667 12.8916667,4.66666667 12.25,4.66666667 L8.56916667,4.66666667 L9.12333333,2.00083333 L9.14083333,1.81416667 C9.14083333,1.575 9.04166667,1.35333333 8.88416667,1.19583333 L8.26583333,0.583333333 L4.4275,4.4275 C4.21166667,4.6375 4.08333333,4.92916667 4.08333333,5.25 L4.08333333,11.0833333 C4.08333333,11.725 4.60833333,12.25 5.25,12.25 L10.5,12.25 C10.9841667,12.25 11.3983333,11.9583333 11.5733333,11.5383333 L13.335,7.42583333 C13.3875,7.29166667 13.4166667,7.15166667 13.4166667,7 L13.4166667,5.88583333 L13.4108333,5.88 L13.4166667,5.83333333 L13.4166667,5.83333333 Z" id="icon" fill="#279519"></path>
                                </g>
                            </g>
                        </g>
                    </g>
                </g>
            </g>
        </g>
    </g>
</svg>