<svg xmlns="http://www.w3.org/2000/svg" width="20.102" height="26.802" viewBox="0 0 20.102 26.802">
  <g id="Group_2" data-name="Group 2" transform="translate(-153 -349)">
    <path id="Path_1" data-name="Path 1" d="M10.051,0A10.061,10.061,0,0,0,0,10.051c0,6.967,9.073,16.12,9.458,16.506a.84.84,0,0,0,1.186,0c.385-.386,9.457-9.539,9.457-16.506A10.061,10.061,0,0,0,10.051,0Z" transform="translate(153 349)" fill="#D21F3A" fill-rule="evenodd" opacity="0.7"/>
    <g id="Group_1" data-name="Group 1" transform="translate(156.232 353.956)">
      <path id="Path_2" data-name="Path 2" d="M30.932,47.351H34.77l2.987-5.193H33.919l-2.987,5.193Zm-3.825,0h3.838l-3-5.193H24.12l2.987,5.193Zm.838-5.193h5.974L30.932,36.98l-2.987,5.178Z" transform="translate(-24.12 -36.98)" fill="#fff" fill-rule="evenodd"/>
    </g>
  </g>
</svg>
