<?xml version="1.0" encoding="UTF-8"?>
<!DOCTYPE svg PUBLIC "-//W3C//DTD SVG 1.1//EN" "http://www.w3.org/Graphics/SVG/1.1/DTD/svg11.dtd">
<!-- Creator: CorelDRAW 2019 (64-Bit) -->
<svg xmlns="http://www.w3.org/2000/svg" xml:space="preserve" width="150px" height="200px" version="1.1" shape-rendering="geometricPrecision" text-rendering="geometricPrecision" image-rendering="optimizeQuality" fill-rule="evenodd" clip-rule="evenodd"
viewBox="0 0 150 200"
 xmlns:xlink="http://www.w3.org/1999/xlink">
 <g id="Layer_x0020_1">
  <metadata id="CorelCorpID_0Corel-Layer"/>
  <g id="_2206129141088">
   <path fill="#233169" d="M75 0c-41.36,0 -75,33.64 -75,75 0,51.99 67.7,120.29 70.58,123.17 1.22,1.22 2.82,1.83 4.42,1.83 1.6,0 3.2,-0.61 4.43,-1.83 2.87,-2.88 70.57,-71.18 70.57,-123.17 0,-41.36 -33.64,-75 -75,-75z"/>
   <path fill="#DA1A32" d="M74.95 114.37l28.64 0 22.29 -38.75 -28.64 0 -22.29 38.75 0 0zm-28.54 0l28.64 0 -22.39 -38.75 -28.54 0 22.29 38.75 0 0 0 0zm6.25 -38.75l44.58 0 -22.29 -38.64 -22.29 38.64 0 0 0 0z"/>
  </g>
  <g id="_2206129136064">
  </g>
  <g id="_2206129149216">
  </g>
  <g id="_2206127959616">
  </g>
  <g id="_2206127959424">
  </g>
  <g id="_2206127960416">
  </g>
  <g id="_2206127957280">
  </g>
  <g id="_2206127956224">
  </g>
  <g id="_2206127970624">
  </g>
  <g id="_2206127970912">
  </g>
  <g id="_2206127970016">
  </g>
  <g id="_2206127970496">
  </g>
  <g id="_2206127968032">
  </g>
  <g id="_2206127967424">
  </g>
  <g id="_2206127967072">
  </g>
  <g id="_2206127967328">
  </g>
 </g>
</svg>
